<svg xmlns="http://www.w3.org/2000/svg" width="99.826" height="430.001" viewBox="0 0 99.826 430.001">
  <path id="Subtração_2" data-name="Subtração 2" d="M974,450H903.5V20H974c-64.081,90.845-33.442,159.256-3.813,225.414,6.919,15.449,14.073,31.421,19.827,47.334,3.1,8.564,5.559,16.44,7.526,24.079a185.635,185.635,0,0,1,4.691,24.643,153.008,153.008,0,0,1,.924,25.422,144.784,144.784,0,0,1-3.776,26.418,160.5,160.5,0,0,1-9.407,27.631A204.116,204.116,0,0,1,974,450Z" transform="translate(-903.5 -20)"/>
</svg>
